<svg xmlns="http://www.w3.org/2000/svg" width="413.372" height="58.928" viewBox="0 0 413.372 58.928">
  <g id="Group_10341" data-name="Group 10341" transform="translate(10653.999 12156.961)">
    <path id="Path_3524" data-name="Path 3524" d="M0,0H27.671C36.615,0,42.8,2.341,46.729,6.353c3.426,3.343,5.182,7.856,5.182,13.624v.167c0,8.943-4.766,14.879-12.036,17.971L53.833,58.51H35.11L23.323,40.79h-7.1V58.51H0ZM26.918,28.084c5.516,0,8.692-2.675,8.692-6.937V20.98c0-4.6-3.342-6.937-8.775-6.937H16.219V28.084Z" transform="translate(-10654.003 -12156.96)" fill="#fff"/>
    <path id="Path_3525" data-name="Path 3525" d="M130.173,0H177.23V13.791H146.221v8.86h28.085V35.44H146.221v9.278h31.427V58.509H130.172V0Z" transform="translate(-10690.647 -12156.961)" fill="#fff"/>
    <path id="Path_3526" data-name="Path 3526" d="M247.781,0h18.137l13.291,37.029L292.5,0h17.8L286.563,58.927H271.519Z" transform="translate(-10723.766 -12156.961)" fill="#fff"/>
    <path id="Path_3527" data-name="Path 3527" d="M389.234,0h47.057V13.791H405.282v8.86h28.085V35.44H405.282v9.278H436.71V58.509H389.233V0Z" transform="translate(-10763.586 -12156.961)" fill="#fff"/>
    <path id="Path_3528" data-name="Path 3528" d="M513.357,0h16.216V44.3h28.336V58.509H513.357Z" transform="translate(-10798.535 -12156.961)" fill="#fff"/>
  </g>
</svg>
