<svg id="Group_10309" data-name="Group 10309" xmlns="http://www.w3.org/2000/svg" xmlns:xlink="http://www.w3.org/1999/xlink" width="877.756" height="217.965" viewBox="0 0 877.756 217.965">
  <defs>
    <clipPath id="clip-path">
      <rect id="Rectangle_3436" data-name="Rectangle 3436" width="877.756" height="217.965" fill="none"/>
    </clipPath>
  </defs>
  <g id="Group_10243" data-name="Group 10243" clip-path="url(#clip-path)">
    <path id="Path_3524" data-name="Path 3524" d="M0,0H58.752C77.743,0,90.878,4.97,99.218,13.489c7.275,7.1,11,16.682,11,28.929v.355c0,18.99-10.121,31.593-25.558,38.16L114.3,124.24H74.547L49.519,86.613H34.434V124.24H0ZM57.153,59.634c11.713,0,18.456-5.68,18.456-14.731v-.355c0-9.76-7.1-14.731-18.633-14.731H34.434V59.634Z" transform="translate(0.002)" fill="#0084c9"/>
    <path id="Path_3525" data-name="Path 3525" d="M130.174,0h99.921V29.284H164.25V48.1h59.635V75.254H164.25v19.7h66.732v29.283H130.172V0Z" transform="translate(68.412 0)" fill="#0084c9"/>
    <path id="Path_3526" data-name="Path 3526" d="M247.781,0h38.511l28.223,78.625L342.733,0h37.8L330.13,125.125H298.185Z" transform="translate(130.222 0)" fill="#0084c9"/>
    <path id="Path_3527" data-name="Path 3527" d="M389.235,0h99.921V29.284H423.311V48.1h59.635V75.254H423.311v19.7h66.732v29.283H389.233V0Z" transform="translate(204.563 0)" fill="#0084c9"/>
    <path id="Path_3528" data-name="Path 3528" d="M513.357,0h34.432V94.067h60.168v30.171h-94.6Z" transform="translate(269.797 0)" fill="#0084c9"/>
    <rect id="Rectangle_3434" data-name="Rectangle 3434" width="6.297" height="55.805" transform="translate(0 161.204)" fill="#0084c9"/>
    <path id="Path_3529" data-name="Path 3529" d="M76.795,105.669h6.139v55.8H77.913l-36.038-45.76v45.76H35.741v-55.8h5.9l35.156,44.723Z" transform="translate(18.784 55.535)" fill="#0084c9"/>
    <path id="Path_3530" data-name="Path 3530" d="M138.015,111.489h-33.8v19.928h30.214v5.742H104.214v24.314h-6.3v-55.8h40.1Z" transform="translate(51.461 55.535)" fill="#0084c9"/>
    <path id="Path_3531" data-name="Path 3531" d="M179.065,162.76c-16.981,0-28.38-13.315-28.38-28.781s11.559-28.937,28.54-28.937,28.38,13.314,28.38,28.778-11.559,28.94-28.54,28.94m0-51.9c-12.755,0-21.841,10.2-21.841,22.96s9.246,23.118,22,23.118,21.844-10.2,21.844-22.96-9.249-23.118-22-23.118" transform="translate(79.193 55.205)" fill="#0084c9"/>
    <path id="Path_3532" data-name="Path 3532" d="M256.044,161.474,239.859,139.79H223.915v21.684h-6.3v-55.8H241.61c12.278,0,20.171,6.616,20.171,16.661,0,9.329-6.378,14.749-15.147,16.345l17.138,22.8Zm-14.909-49.985H223.915v22.642h17.138c8.372,0,14.348-4.307,14.348-11.559,0-6.938-5.259-11.083-14.267-11.083" transform="translate(114.37 55.535)" fill="#0084c9"/>
    <path id="Path_3533" data-name="Path 3533" d="M303.078,146.167h-.317L282.43,116.351v45.123H276.3v-55.8h6.375L303,136.123l20.328-30.453h6.378v55.8h-6.3v-45.2Z" transform="translate(145.208 55.535)" fill="#0084c9"/>
    <path id="Path_3534" data-name="Path 3534" d="M396.17,161.611H389.4l-6.538-14.749H352.484l-6.618,14.749h-6.458l25.429-56.2h5.9Zm-28.462-48.868L354.953,141.2h25.432Z" transform="translate(178.378 55.398)" fill="#0084c9"/>
    <path id="Path_3535" data-name="Path 3535" d="M422.518,161.474h-6.375V111.489H397.407v-5.82h43.846v5.82H422.518Z" transform="translate(208.858 55.535)" fill="#0084c9"/>
    <rect id="Rectangle_3435" data-name="Rectangle 3435" width="6.297" height="55.805" transform="translate(694.342 161.204)" fill="#0084c9"/>
    <path id="Path_3536" data-name="Path 3536" d="M517.244,162.76c-16.105,0-27.983-12.676-27.983-28.78,0-15.944,11.8-28.938,28.22-28.938,10.127,0,16.184,3.587,21.765,8.848l-4.3,4.624c-4.706-4.465-9.966-7.654-17.538-7.654-12.359,0-21.605,9.966-21.605,22.96s9.326,23.12,21.605,23.12c7.652,0,12.674-2.95,18.015-8.052l4.143,4.066c-5.817,5.9-12.2,9.806-22.319,9.806" transform="translate(257.133 55.205)" fill="#0084c9"/>
    <path id="Path_3537" data-name="Path 3537" d="M571.611,130.817c12.438,2.711,18.176,7.254,18.176,15.863,0,9.648-7.971,15.866-19.053,15.866-8.85,0-16.1-2.952-22.8-8.929l3.905-4.624c5.822,5.262,11.4,7.892,19.137,7.892,7.494,0,12.435-3.907,12.435-9.565,0-5.262-2.792-8.212-14.51-10.683-12.836-2.79-18.735-6.935-18.735-16.182,0-8.929,7.734-15.307,18.336-15.307A29.118,29.118,0,0,1,588.115,112l-3.669,4.862c-5.181-4.224-10.363-6.058-16.1-6.058-7.254,0-11.878,3.985-11.878,9.088,0,5.341,2.868,8.293,15.146,10.923" transform="translate(287.969 55.26)" fill="#0084c9"/>
  </g>
</svg>
