<svg xmlns="http://www.w3.org/2000/svg" width="11.306" height="16" viewBox="0 0 11.306 16">
  <g id="icons8_upload_1" transform="translate(-29.8 -20)">
    <path id="Path_3828" data-name="Path 3828" d="M45.149,20.149a.479.479,0,0,0-.694,0l-3.306,3.306a.491.491,0,0,0,.694.694l2.463-2.463V31.4a.5.5,0,1,0,.992,0V21.686l2.463,2.463a.479.479,0,0,0,.694,0,.479.479,0,0,0,0-.694Z" transform="translate(-9.349 0)" fill="#616161"/>
    <path id="Path_3829" data-name="Path 3829" d="M29.8,111.3a.487.487,0,0,0,.5.5H40.61a.5.5,0,0,0,0-.992H30.3A.487.487,0,0,0,29.8,111.3Z" transform="translate(0 -75.792)" fill="#616161"/>
  </g>
</svg>
