<svg xmlns="http://www.w3.org/2000/svg" width="20" height="20" viewBox="0 0 20 20">
  <path id="icons8_info_1" d="M11.188,1.188a10,10,0,1,0,10,10A10,10,0,0,0,11.188,1.188Zm2.083,15.5c-.516.2-.926.357-1.233.463a3.271,3.271,0,0,1-1.068.159,2.137,2.137,0,0,1-1.455-.456A1.47,1.47,0,0,1,9,15.695a4,4,0,0,1,.04-.556,6.17,6.17,0,0,1,.122-.645l.645-2.275c.056-.218.106-.423.146-.618a2.69,2.69,0,0,0,.056-.536.822.822,0,0,0-.179-.605,1.015,1.015,0,0,0-.688-.172,1.891,1.891,0,0,0-.513.076c-.175.053-.324.1-.45.149l.172-.7c.42-.172.823-.317,1.21-.44a3.614,3.614,0,0,1,1.091-.185,2.087,2.087,0,0,1,1.432.45,1.49,1.49,0,0,1,.5,1.164c0,.1-.01.274-.033.522a3.576,3.576,0,0,1-.129.688l-.642,2.268c-.053.182-.1.39-.142.622a3.429,3.429,0,0,0-.06.529.766.766,0,0,0,.2.618,1.131,1.131,0,0,0,.7.162,2.076,2.076,0,0,0,.529-.079,3.041,3.041,0,0,0,.427-.145Zm-.116-9.21a1.525,1.525,0,0,1-1.078.417,1.547,1.547,0,0,1-1.085-.417,1.323,1.323,0,0,1-.45-1.009,1.353,1.353,0,0,1,.45-1.015,1.535,1.535,0,0,1,1.085-.42,1.514,1.514,0,0,1,1.078.42,1.341,1.341,0,0,1,.45,1.015A1.323,1.323,0,0,1,13.155,7.477Z" transform="translate(-1.188 -1.188)" fill="#0084c9"/>
</svg>
