<svg xmlns="http://www.w3.org/2000/svg" width="80" height="80" viewBox="0 0 80 80">
  <g id="mongodb" transform="translate(-0.013)">
    <circle id="Ellipse_65" data-name="Ellipse 65" cx="40" cy="40" r="40" transform="translate(0.013)" fill="#13aa52"/>
    <path id="Path_4445" data-name="Path 4445" d="M399.3,224.133c-2.531-11.172-8.514-14.845-9.158-16.248a16.986,16.986,0,0,1-1.418-2.751c-.012-.03-.031-.082-.052-.133a2.967,2.967,0,0,1-1.047,2.371c-1.45,1.133-8.887,7.374-9.492,20.066-.564,11.838,8.551,18.892,9.784,19.791l.14.1v-.009c.008.059.391,2.818.661,5.74h.966a56.89,56.89,0,0,1,1.018-6.147l.078-.051a15.993,15.993,0,0,0,1.574-1.288l.056-.051a22.71,22.71,0,0,0,7.285-16.948A27.161,27.161,0,0,0,399.3,224.133Zm-10.685,16.412s0-16.6.548-16.6c.427,0,.981,21.416.981,21.416C389.384,245.269,388.616,241.836,388.616,240.545Z" transform="translate(-348.575 -188.954)" fill="#fff"/>
  </g>
</svg>
