<svg xmlns="http://www.w3.org/2000/svg" width="8.095" height="18.022" viewBox="0 0 8.095 18.022">
  <path id="Path_4445" data-name="Path 4445" d="M386.056,212.175c-.949-4.189-3.193-5.567-3.434-6.093a6.371,6.371,0,0,1-.532-1.032c0-.011-.011-.031-.02-.05a1.113,1.113,0,0,1-.392.889,10.042,10.042,0,0,0-3.56,7.525,9.093,9.093,0,0,0,3.669,7.422l.053.037v0c0,.022.147,1.057.248,2.153h.362a21.337,21.337,0,0,1,.382-2.305l.029-.019a5.994,5.994,0,0,0,.59-.483l.021-.019a8.516,8.516,0,0,0,2.732-6.356A10.183,10.183,0,0,0,386.056,212.175Zm-4.007,6.155s0-6.226.205-6.225c.16,0,.368,8.031.368,8.031C382.337,220.1,382.049,218.814,382.049,218.329Z" transform="translate(-378.109 -205)" fill="#13aa52"/>
</svg>
