<svg xmlns="http://www.w3.org/2000/svg" width="137.781" height="118.01"
                                             viewBox="0 0 137.781 118.01">
                                             <g id="Landing-page" transform="translate(-0.165 48.516)">
                                                 <g id="Extra-large:-Desktops---12-col-Pricing"
                                                     transform="translate(0.165 -48.516)">
                                                     <g id="Pricing-table" transform="translate(0 0)">
                                                         <g id="scribble-2" transform="translate(104.472 0) rotate(60)">
                                                             <path id="Fill-139"
                                                                 d="M22.7,103.033l.166.166c-1.414,1.247-2.827,2.411-4.241,3.659h0c1.33-1.33,2.744-2.578,4.075-3.825M33.179,81.579a30.272,30.272,0,0,0-.582-6.153c-.832-3.742-2.578-6.735-6.819-7.816-5.072-1.247-12.639,0-15.882,5.9a12.461,12.461,0,0,0-1.58,7.068,3.019,3.019,0,0,0,1.746,2.578c2.079,1.081,4.324,2.162,6.32,3.326,4.74,2.827,9.729,2.994,14.885,1.746a1.591,1.591,0,0,0,1.33-1.247,19.262,19.262,0,0,0,.582-5.405M.832,120.5c.249-.166.582-.416.832-.582-.5-.416-1,.249-1.663-.249,6.07-3.492,11.143-7.9,16.132-12.473s10.062-9.23,13.72-14.885c-.249-.416-.582-.249-.915-.249a21.1,21.1,0,0,1-10.145-1.663A91.186,91.186,0,0,1,8.482,85.321c-4.324-2.411-5.488-5.156-4.49-9.729,1.33-6.237,6.652-10.727,13.471-11.392,6.153-.582,11.392,1.164,15.55,5.405a14.64,14.64,0,0,1,3.659,7.65,29.465,29.465,0,0,1,.665,7.65c-.083,1.414-.083,1.5,1.414.832a32.373,32.373,0,0,0,9.9-6.652,42.349,42.349,0,0,0,7.484-10.893c3.243-6.486,4.324-13.471,5.405-20.373.832-5.322,1.5-10.644,1.829-15.966a91.844,91.844,0,0,0-1.081-17.878c-.416-2.994-1.164-5.9-1.663-8.9,0-1.5-.832-2.744-1.081-4.158-.083-.333-.249-.582.083-.832s.582.083.748.333c.249.249.748.416.748.832.249,2.411,1.913,4.407,2.411,6.819.5,2.495,1.164,4.906,1.746,7.4.5,2.495.748,4.989,1,7.484a92.683,92.683,0,0,1-.416,19.791c-.582,4.573-1.081,9.23-2,13.72A52.941,52.941,0,0,1,60.2,68.524,60.973,60.973,0,0,1,55.3,77.339a25.583,25.583,0,0,1-5.322,5.9,47.809,47.809,0,0,1-4.657,3.409,27.416,27.416,0,0,1-6.652,3.243,4.875,4.875,0,0,0-3.492,3.326,26.245,26.245,0,0,1-3.825,6.153,103.122,103.122,0,0,1-15.3,14.8A35.627,35.627,0,0,1,7.4,119.5a11.707,11.707,0,0,1-6.569,1"
                                                                 transform="translate(0 0)" fill="#cef"
                                                                 fill-rule="evenodd" />
                                                         </g>
                                                     </g>
                                                 </g>
                                             </g>
                                         </svg>