<svg xmlns="http://www.w3.org/2000/svg" width="118.156" height="72.351" viewBox="0 0 118.156 72.351">
    <g id="Landing-page" transform="translate(0.043 20.112)">
      <g id="Extra-large:-Desktops---12-col-Pricing" transform="translate(-810 -317)">
        <g id="Header">
          <g id="scribble-1" transform="translate(918.252 369.673) rotate(-169)">
            <path id="Fill-523" d="M6.4,43.9a2.726,2.726,0,0,0-1.3,1.5,3.182,3.182,0,0,0,1.3-1.5M42.2,19.5c2.6-.8,5-2,7.5-3,3.6-1.4,7.1-2.9,10.8-4,2.3-.7,4.5-1.6,6.8-2.2C72.6,8.8,78,7.2,83.4,6c4.4-.9,8.7-2,13.1-2.8,3.9-.7,7.8-1.1,11.8-1.6a2.193,2.193,0,0,1,1.6.2c0,.5-.7.1-.7.6.4.2,1.2-.3,1.2.4a1.567,1.567,0,0,1-1.3,1.4c-1.1.3-2.3.1-3.4.3-5,.9-9.9,1.7-14.8,2.9a91.683,91.683,0,0,0-9,2.4c-1.6.6-3.4.6-4.9,1.4-.4.2-.9.1-1.1.7-.1.2-.6.7-.9,0-.1-.1-.3,0-.5.1a38.112,38.112,0,0,0-5.7,1.9c-1.7.8-3.6,1.3-5.4,2-1.3.5-2.7.4-4,1.1a11.938,11.938,0,0,0-1.6.8c-.2.1-.4.1-.6.2a11.337,11.337,0,0,0-4.1,1.6,11.6,11.6,0,0,0-4.3,1.8,12.384,12.384,0,0,0-4.5,2.1,6.256,6.256,0,0,1-2,1c-2.2,1.2-4.4,2.4-6.7,3.6-.4.2-.8.6-1.3.4a9.567,9.567,0,0,0-3.4,1.9,14.135,14.135,0,0,1-3.4,1.9,16.543,16.543,0,0,0-4.1,2.8c-1,1-2.4,1.5-3.5,2.3-2.5,1.9-5.2,3.6-7.2,5.9-2.3,2.5-5.1,4.3-7.2,6.9a7.831,7.831,0,0,1-1.6,2,2.55,2.55,0,0,1-3,0,1.835,1.835,0,0,1-.5-2.3,21.606,21.606,0,0,1,2.9-4.3A81.8,81.8,0,0,1,19.6,30.8,134.322,134.322,0,0,1,38.2,19.7c3.3-1.6,6.7-3,10.1-4.4,3.5-1.5,7-2.9,10.6-4.1,3.2-1.1,6.4-2,9.7-2.9,3.8-1.1,7.6-2.2,11.4-3C89.2,3.2,98.4,1.2,107.9.6c.6,0,1.3-.5,2,.1a2.567,2.567,0,0,1-1.8.7A141.957,141.957,0,0,0,93.7,3.3c-7.1,1.2-14,3.1-20.9,4.9-3.4.8-6.6,2-9.9,3-4.4,1.3-8.6,2.9-12.8,4.5a70.383,70.383,0,0,0-7.4,3.4c-.4.1-.5.2-.5.4-.6-.2-1,.2-1.4.4-3.6,1.7-7,3.5-10.4,5.4-2.2,1.2-4.2,2.5-6.3,3.8a55.511,55.511,0,0,0-6.3,4.5c-.6.5-1.6.6-1.6,1.6-1.2.1-1.7,1.1-2.4,1.9a8.338,8.338,0,0,0,2.3-1.9,2.506,2.506,0,0,0,.7-.4A130.941,130.941,0,0,1,35.9,22.7c2-.9,4.1-2.1,6.3-3.2" fill="#0084c9" fill-rule="evenodd"/>
          </g>
        </g>
      </g>
    </g>
</svg>