<svg xmlns="http://www.w3.org/2000/svg" width="512" height="535.274" viewBox="0 0 512 535.274">
  <path id="filter" d="M14.636,2C7.636,2,3,6.636,3,13.636V48.545c0,3.5,1.318,5.682,3.636,8L192.818,254.364a12.517,12.517,0,0,0,8,3.636H317.182c3.5,0,5.682-1.318,8-3.636L511.364,56.545c2.318-2.318,3.636-4.5,3.636-8V13.636C515,6.636,510.364,2,503.364,2ZM189.182,281.273V455.818A12.338,12.338,0,0,0,195,466.364l116.364,69.818c1.182,1.181,3.5,1.09,5.818,1.09s3.5.091,5.818-1.09a12.338,12.338,0,0,0,5.818-10.546V281.273Z" transform="translate(-3 -2)"/>
</svg>
