<svg xmlns="http://www.w3.org/2000/svg" width="512" height="512" viewBox="0 0 512 512">
  <path id="globe" d="M259,3C117.846,3,3,117.846,3,259S117.846,515,259,515,515,400.154,515,259,400.154,3,259,3Zm0,39.385c6.656,0,13.194.409,19.692,1V62.077h39.385V50.769a217.212,217.212,0,0,1,118.154,84.077v65.077l19.692,39.385V259h19.692c0,7.207-.388,14.354-1.077,21.384-.177,1.891-.571,3.706-.807,5.577-.65,5.179-1.321,10.325-2.345,15.386-.374,1.89-.876,3.743-1.308,5.614-1.144,5-2.371,9.984-3.848,14.848-.512,1.674-1.1,3.306-1.652,4.96-1.654,5-3.415,9.964-5.423,14.809-.591,1.418-1.237,2.794-1.847,4.193-2.206,5.02-4.517,9.964-7.077,14.769-.61,1.162-1.272,2.3-1.922,3.423-2.757,4.962-5.677,9.773-8.808,14.5-.61.926-1.254,1.883-1.885,2.808q-4.963,7.237-10.5,14.039c-.61.748-1.158,1.463-1.768,2.192-3.82,4.588-7.865,8.978-12.04,13.231-.61.61-1.2,1.274-1.808,1.885-4.273,4.234-8.737,8.294-13.345,12.154-.65.551-1.215,1.123-1.885,1.654-4.608,3.781-9.442,7.3-14.346,10.691-.768.532-1.463,1.142-2.231,1.654-4.707,3.17-9.614,6.049-14.576,8.846a214.908,214.908,0,0,1-76.231,25.655l79-59.54,21.654-21.654,27-54.307V318.077l-39.385-19.692H357.461L318.077,259H278.692L259,278.692v19.692l-19.692,19.692v39.385l39.385,31.5-38.924,85.693C129.315,464.848,42.385,371.935,42.385,259A216.324,216.324,0,0,1,121.154,92.038v9.423l-19.692,19.692v43.307l19.692,74.846,98.462,39.385h19.692V259l-59.077-19.692V199.923h59.077L259,150.692l39.385-29.538V101.462L239.308,62.077,211,47.923A216.586,216.586,0,0,1,259,42.385ZM239.308,219.615v19.692h39.385V219.615Z" transform="translate(-3 -3)"/>
</svg>
