<svg xmlns="http://www.w3.org/2000/svg" width="835.775" height="562.733" viewBox="0 0 835.775 562.733">
  <path id="graduation-cap" d="M418.2,4.875l-12.485,6.66L46.1,198,.313,221.311l44.952,22.477v224.76a53.147,53.147,0,1,0,79.915,45.783,52.789,52.789,0,0,0-26.638-45.783V271.258l53.277,27.472V434.417c0,11.758,5.411,22.371,11.654,29.137s13.839,10.82,21.644,14.984c15.712,8.218,34.338,14.046,57.439,19.145,46.2,10.3,107.8,16.649,175.646,16.649s129.446-6.348,175.647-16.649c23.1-5.1,41.726-10.927,57.437-19.145,7.805-4.163,15.4-8.22,21.644-14.984s11.654-17.379,11.654-29.137V298.729L790.3,244.619l45.783-23.308L790.3,198,430.688,11.535Zm0,59.936,301.345,156.5L672.1,245.453c-6.036-6.348-13.319-11.031-20.812-14.984-15.607-8.221-34.339-14.049-57.437-19.148-46.1-10.3-107.491-16.649-175.647-16.649s-129.55,6.348-175.646,16.649c-23.1,5.1-41.83,10.927-57.439,19.148-7.492,3.953-14.776,8.636-20.811,14.984l-47.449-24.142Zm0,183.138c65.035,0,123.514,5.932,163.993,14.984,20.187,4.475,36.417,9.678,44.952,14.153,2.7,1.455,3.119,2.5,4.161,3.33V381.974a291.189,291.189,0,0,0-37.459-10.823c-46.2-10.3-107.8-16.649-175.647-16.649s-129.446,6.348-175.646,16.649a291.114,291.114,0,0,0-37.46,10.823V280.416c1.04-.834,1.457-1.875,4.162-3.33,8.533-4.475,24.765-9.678,44.952-14.153C294.687,253.881,353.166,247.949,418.2,247.949Zm0,159.829c64.619,0,123.41,5.932,163.993,14.984a191.059,191.059,0,0,1,36.628,11.654,191.061,191.061,0,0,1-36.628,11.654c-40.583,9.052-99.374,14.984-163.993,14.984s-123.41-5.932-163.992-14.984a191.025,191.025,0,0,1-36.628-11.654,191.023,191.023,0,0,1,36.628-11.654C294.79,413.711,353.581,407.779,418.2,407.779Z" transform="translate(-0.313 -4.875)"/>
</svg>
