<svg xmlns="http://www.w3.org/2000/svg" width="512" height="512" viewBox="0 0 512 512">
  <path id="info" d="M257.188,1.187c-141.376,0-256,114.624-256,256s114.624,256,256,256,256-114.625,256-256S398.562,1.187,257.188,1.187ZM310.52,397.971c-13.2,5.164-23.7,9.143-31.576,11.852s-16.93,4.063-27.344,4.063c-15.916,0-28.36-3.894-37.25-11.683-8.8-7.7-13.2-17.608-13.2-29.63a102.394,102.394,0,0,1,1.014-14.221,157.936,157.936,0,0,1,3.134-16.508L221.8,283.6c1.439-5.589,2.709-10.836,3.725-15.831a68.862,68.862,0,0,0,1.439-13.714c0-7.366-1.524-12.615-4.573-15.493-3.132-2.963-8.972-4.4-17.608-4.4a48.4,48.4,0,0,0-13.121,1.946c-4.487,1.355-8.3,2.625-11.513,3.81l4.4-17.947c10.751-4.4,21.079-8.127,30.984-11.259a92.506,92.506,0,0,1,27.937-4.742c15.831,0,28.106,3.894,36.656,11.514S293,235.093,293,247.283c0,2.54-.254,7.026-.845,13.376a91.555,91.555,0,0,1-3.3,17.608L272.425,336.34c-1.355,4.657-2.54,9.991-3.639,15.916a87.788,87.788,0,0,0-1.526,13.545c0,7.7,1.695,13.038,5.164,15.831,3.387,2.794,9.4,4.148,17.949,4.148a53.14,53.14,0,0,0,13.545-2.033,77.86,77.86,0,0,0,10.921-3.723ZM307.557,162.2a39.042,39.042,0,0,1-27.6,10.667A39.6,39.6,0,0,1,252.192,162.2c-7.7-7.111-11.512-15.746-11.512-25.82s3.895-18.794,11.512-25.989A39.3,39.3,0,0,1,279.96,99.643a38.752,38.752,0,0,1,27.6,10.751c7.7,7.2,11.514,15.915,11.514,25.989S315.262,155.092,307.557,162.2Z" transform="translate(-1.188 -1.188)"/>
</svg>
