<svg xmlns="http://www.w3.org/2000/svg" width="378.766" height="562.889" viewBox="0 0 378.766 562.889">
  <path id="ip_address" d="M196.383,3C92.075,3,7,88.075,7,192.383c0,29.592,12,63.538,28.276,100.611S72.512,369.438,93.8,406.1c42.578,73.4,85.485,134.8,85.485,134.8l17.1,24.988,17.1-24.988s42.908-61.4,85.485-134.8c21.289-36.66,42.249-76.033,58.526-113.1s28.275-71.019,28.275-100.611C385.766,88.075,300.691,3,196.383,3Zm0,42.085a146.952,146.952,0,0,1,147.3,147.3c0,16.851-9.042,48.743-24.329,83.514s-36.414,73.319-57.211,109.158C229.1,442.1,208.548,472.266,196.383,490.268c-12.165-18-32.715-48.169-65.758-105.213-20.8-35.84-41.921-74.39-57.208-109.158s-24.332-66.663-24.332-83.514A146.952,146.952,0,0,1,196.383,45.085Zm-84.17,84.17v147.3H154.3v-147.3Zm84.17,0v147.3h42.085V234.468H248.99a52.606,52.606,0,1,0,0-105.213Zm42.085,42.085H248.99a10.521,10.521,0,1,1,0,21.043H238.468Z" transform="translate(-7 -3)"/>
</svg>
