<svg xmlns="http://www.w3.org/2000/svg" width="512" height="511.988" viewBox="0 0 512 511.988">
  <path id="key" d="M212.712,150.033c0,16,0,31.506,5.041,46.033C164.718,258.342,24.659,422.889,11.619,435.438A24.819,24.819,0,0,0,3.375,453.9c0,10.467,6.406,20.549,11.815,26.22,8.121,8.489,42.83,40.607,49.236,34.464C83.382,496.122,87.2,491.2,94.951,483.572c11.692-11.447-1.225-34.831,2.836-44.3s8.366-11.324,15.385-12.795,19.446,3.571,29.16,3.693c10.222.123,15.753-4.183,23.384-11.324,6.161-5.654,10.589-10.957,10.712-19.2.245-11.079-15.753-25.729-3.816-37.4s29.16,7.631,41.85,6.161,28.057-19.078,29.668-26.587-14.405-26.832-11.937-37.789c.858-3.693,8.366-12.3,14.037-13.53s30.77,8.489,36.424,7.264c6.9-1.47,14.9-8.734,21.406-12.795,19.078,8.244,36.424,11.57,58.705,11.57,84.295,0,152.609-65.724,152.609-146.693S447.043,3.375,362.731,3.375,212.712,69.064,212.712,150.033Zm223.864-28.512a39.382,39.382,0,1,1-39.382-39.382A39.382,39.382,0,0,1,436.576,121.521Z" transform="translate(-3.375 -3.375)"/>
</svg>
