<svg id="lock" xmlns="http://www.w3.org/2000/svg" width="403.042" height="490.811" viewBox="0 0 403.042 490.811">
  <path id="Path_210" data-name="Path 210" d="M854.407,431.459V380.523c0-72.576-65.657-131.664-146.353-131.664S561.7,307.947,561.7,380.523v50.936c-31.113,5.336-54.857,32.213-54.857,64.623V673.445c0,36.163,29.617,65.609,66.108,65.609H843.158c36.439,0,66.109-29.446,66.109-65.609V496.032C909.268,463.671,885.523,436.795,854.407,431.459ZM580.019,380.523c0-62.6,57.4-113.483,128.035-113.483,70.591,0,128.038,50.886,128.038,113.483v49.9H580.019ZM891,673.445a47.709,47.709,0,0,1-47.84,47.478H572.95a47.708,47.708,0,0,1-47.839-47.478V496.032c0-26.136,21.456-47.429,47.839-47.429H843.158c26.384,0,47.84,21.294,47.84,47.429Z" transform="translate(-506.534 -248.551)"/>
  <path id="Path_210_-_Outline" data-name="Path 210 - Outline" d="M708.042,248.693c81.415,0,147.651,60,147.651,133.749v46.52a68.68,68.68,0,0,1,53.716,67.022V670.377a69.026,69.026,0,0,1-69.077,68.82H575.751a69.025,69.025,0,0,1-69.075-68.82V496.033a68.708,68.708,0,0,1,53.715-67.069V382.443C560.391,308.693,626.626,248.693,708.042,248.693ZM840.332,730.54a60.345,60.345,0,0,0,60.39-60.163V495.985a60.064,60.064,0,0,0-50.115-59.208l-3.6-.62V382.443c0-68.978-62.338-125.095-138.961-125.095S569.077,313.465,569.077,382.443v53.713l-3.6.62a60.093,60.093,0,0,0-50.11,59.257V670.377a60.345,60.345,0,0,0,60.388,60.163ZM708.042,266.565c71.526,0,129.715,51.983,129.715,115.878V435.82H578.329V382.443C578.329,318.547,636.518,266.565,708.042,266.565Zm121.028,160.6V382.443c0-59.122-54.293-107.222-121.028-107.222s-121.025,48.1-121.025,107.222v44.721ZM575.751,445.034H840.332a51.128,51.128,0,0,1,51.189,50.95V670.377a51.151,51.151,0,0,1-51.189,51H575.751a51.149,51.149,0,0,1-51.186-51V495.985A51.126,51.126,0,0,1,575.751,445.034ZM840.332,712.72a42.47,42.47,0,0,0,42.5-42.343V495.985a42.445,42.445,0,0,0-42.5-42.294H575.751a42.446,42.446,0,0,0-42.5,42.294V670.377a42.47,42.47,0,0,0,42.5,42.343Z" transform="translate(-506.522 -248.539)"/>
  <path id="Path_210_-_Outline-2" data-name="Path 210 - Outline" d="M708.042,248.693c81.415,0,147.651,60,147.651,133.749v46.52a68.68,68.68,0,0,1,53.716,67.022V670.377a69.026,69.026,0,0,1-69.077,68.82H575.751a69.025,69.025,0,0,1-69.075-68.82V496.033a68.708,68.708,0,0,1,53.715-67.069V382.443C560.391,308.693,626.626,248.693,708.042,248.693ZM840.332,730.54a60.345,60.345,0,0,0,60.39-60.163V495.985a60.064,60.064,0,0,0-50.115-59.208l-3.6-.62V382.443c0-68.978-62.338-125.095-138.961-125.095S569.077,313.465,569.077,382.443v53.713l-3.6.62a60.093,60.093,0,0,0-50.11,59.257V670.377a60.345,60.345,0,0,0,60.388,60.163ZM708.042,266.565c71.526,0,129.715,51.983,129.715,115.878V435.82H578.329V382.443C578.329,318.547,636.518,266.565,708.042,266.565Zm121.028,160.6V382.443c0-59.122-54.293-107.222-121.028-107.222s-121.025,48.1-121.025,107.222v44.721ZM575.751,445.034H840.332a51.128,51.128,0,0,1,51.189,50.95V670.377a51.151,51.151,0,0,1-51.189,51H575.751a51.149,51.149,0,0,1-51.186-51V495.985A51.126,51.126,0,0,1,575.751,445.034ZM840.332,712.72a42.47,42.47,0,0,0,42.5-42.343V495.985a42.445,42.445,0,0,0-42.5-42.294H575.751a42.446,42.446,0,0,0-42.5,42.294V670.377a42.47,42.47,0,0,0,42.5,42.343Z" transform="translate(-506.522 -248.539)"/>
  <path id="Path_210_-_Outline_-_Outline" data-name="Path 210 - Outline - Outline" d="M708.031,248.528c82.1,0,148.9,60.905,148.9,135.768v42.426a71.44,71.44,0,0,1,52.622,69.217V667.416a72.005,72.005,0,0,1-71.925,71.924H578.434a72,72,0,0,1-71.924-71.924V495.988a71.473,71.473,0,0,1,52.621-69.264V384.3C559.131,309.434,625.926,248.528,708.031,248.528ZM900.958,492.67a62.976,62.976,0,0,0-49.227-58.48l-3.314-.752V384.3c0-66.606-56.744-121.425-128.712-126.822,71.968,5.4,128.712,60.215,128.712,126.822v49.232A63.24,63.24,0,0,1,900.958,492.67ZM837.627,722.318a54.965,54.965,0,0,0,54.9-54.9V495.94a54.75,54.75,0,0,0-45.565-54.025l-7.059-1.22V384.3c0-65.476-59.16-118.747-131.877-118.747S576.152,318.82,576.152,384.3v56.4l-7.062,1.22a54.778,54.778,0,0,0-45.559,54.073V667.416a54.965,54.965,0,0,0,54.9,54.9ZM515.1,492.711a63.25,63.25,0,0,1,48.477-58.346A63,63,0,0,0,515.1,492.711ZM837.627,730.828H578.434A63.1,63.1,0,0,1,539.583,717.5a63.1,63.1,0,0,0,38.851,13.327H837.627a63.1,63.1,0,0,0,38.828-13.309A63.1,63.1,0,0,1,837.627,730.828ZM708.031,266.1c72.415,0,131.33,53.022,131.33,118.2v56.74H576.705V384.3C576.705,319.124,635.617,266.1,708.031,266.1Zm73.131,30.126a134.658,134.658,0,0,0-142.895-2.158,134.658,134.658,0,0,1,142.895,2.158Zm41.177,127.788V384.3c0-55.786-51.28-101.174-114.308-101.174S593.725,328.51,593.725,384.3v39.718Zm8.511,8.511h0Zm-252.415,9.061H837.627a54.437,54.437,0,0,1,54.4,54.353V667.416a54.46,54.46,0,0,1-54.4,54.4H578.434a54.46,54.46,0,0,1-54.4-54.4V495.94A54.437,54.437,0,0,1,578.434,441.587ZM873.85,695.557a45.665,45.665,0,0,0,9.666-28.141V495.94a45.917,45.917,0,0,0-45.89-45.842H578.434a45.736,45.736,0,0,0-30.99,12.062,45.74,45.74,0,0,1,30.99-12.061H837.627a45.917,45.917,0,0,1,45.89,45.841V667.416A45.665,45.665,0,0,1,873.85,695.557Zm-36.224,9.237A37.421,37.421,0,0,0,875,667.416V495.94a37.4,37.4,0,0,0-37.378-37.33H578.434a37.4,37.4,0,0,0-37.378,37.33V667.416a37.421,37.421,0,0,0,37.378,37.379Z" transform="translate(-506.51 -248.528)"/>
  <path id="Path_211" data-name="Path 211" d="M511.158,254a1.012,1.012,0,0,0-1.01,1.01v1.516a1.01,1.01,0,0,0,2.02,0v-1.516A1.012,1.012,0,0,0,511.158,254Zm.5,2.526a.5.5,0,0,1-1.01,0v-1.516a.5.5,0,1,1,1.01,0Z" transform="translate(-309.637 82.87)"/>
  <path id="Path_211_-_Outline" data-name="Path 211 - Outline" d="M511.147,253.839A1.165,1.165,0,0,1,512.31,255v1.516a1.164,1.164,0,0,1-2.328,0V255A1.165,1.165,0,0,1,511.147,253.839Zm0,3.534a.856.856,0,0,0,.856-.855V255a.856.856,0,1,0-1.712,0v1.516A.856.856,0,0,0,511.147,257.373Zm0-3.03a.66.66,0,0,1,.658.66v1.516a.659.659,0,0,1-1.318,0V255A.66.66,0,0,1,511.147,254.343Zm0,2.525a.351.351,0,0,0,.35-.35V255a.351.351,0,1,0-.7,0v1.516A.351.351,0,0,0,511.147,256.868Z" transform="translate(-309.625 84.884)"/>
  <path id="Path_211_-_Outline-2" data-name="Path 211 - Outline" d="M511.147,253.839A1.165,1.165,0,0,1,512.31,255v1.516a1.164,1.164,0,0,1-2.328,0V255A1.165,1.165,0,0,1,511.147,253.839Zm0,3.534a.856.856,0,0,0,.856-.855V255a.856.856,0,1,0-1.712,0v1.516A.856.856,0,0,0,511.147,257.373Zm0-3.03a.66.66,0,0,1,.658.66v1.516a.659.659,0,0,1-1.318,0V255A.66.66,0,0,1,511.147,254.343Zm0,2.525a.351.351,0,0,0,.35-.35V255a.351.351,0,1,0-.7,0v1.516A.351.351,0,0,0,511.147,256.868Z" transform="translate(-309.625 84.884)"/>
  <path id="Path_211_-_Outline_-_Outline" data-name="Path 211 - Outline - Outline" d="M511.135,253.673a1.319,1.319,0,0,1,1.318,1.318v1.516a1.318,1.318,0,0,1-2.636,0v-1.516A1.319,1.319,0,0,1,511.135,253.673Zm.744,3.515a1,1,0,0,0,.266-.681v-1.516a1.011,1.011,0,0,0-1.007-1.01,1.011,1.011,0,0,1,1.007,1.01v1.516A1,1,0,0,1,511.879,257.188Zm-.744-.485a.2.2,0,0,0,.2-.2v-1.516a.2.2,0,1,0-.394,0v1.516A.2.2,0,0,0,511.135,256.7Zm0,.308a.5.5,0,0,0,.5-.5v0a.5.5,0,0,1-.923.282A.506.506,0,0,0,511.135,257.011Z" transform="translate(-309.613 86.989)"/>
</svg>
