<svg xmlns="http://www.w3.org/2000/svg" width="629.03" height="494.238" viewBox="0 0 629.03 494.238">
  <path id="mail" d="M68.4,2A67.64,67.64,0,0,0,1,69.4V428.842a67.64,67.64,0,0,0,67.4,67.4H562.634a67.641,67.641,0,0,0,67.4-67.4V69.4A67.64,67.64,0,0,0,562.634,2Zm0,44.931H562.634a16.354,16.354,0,0,1,4.215.877L315.515,221.739,64.184,47.808A16.333,16.333,0,0,1,68.4,46.931ZM45.931,89.755,315.515,276.5,585.1,89.755v318.2L443.99,289.837l-38.613,26.678L565.967,450.606a18.661,18.661,0,0,1-3.334.7H68.4a18.673,18.673,0,0,1-3.335-.7L225.653,316.515l-38.612-26.678L45.931,407.958Z" transform="translate(-1 -2)"/>
</svg>
