<svg xmlns="http://www.w3.org/2000/svg" width="512" height="512.96" viewBox="0 0 512 512.96">
  <path id="phone" d="M390.906,3.272A67.01,67.01,0,0,0,371.87,8.185V7.571c-.309.077-.922.537-1.228.614C322.817,25,231.237,67.14,148.333,150.045,64.812,233.564,24.511,326.833,6.472,372.969v.613a70.54,70.54,0,0,0,13.51,68.168l.614.613v.615l58.955,58.34,2.456,2.456c16.274,16.273,44.523,16.273,60.8,0l80.45-80.448c16.273-16.275,16.273-45.138,0-61.411l-38.69-38.69c6.756-14.047,24.258-48.593,55.27-81.063,30.782-32.24,66.094-48.669,79.835-54.655L360.2,228.038l1.843,1.228c9.211,6.141,19.728,9.594,30.706,9.211,10.286-.383,20.957-5.449,28.862-14.124l.615.613,1.228-1.841,79.22-78.606c16.273-16.275,16.273-45.138,0-61.412l-60.8-60.8A67.57,67.57,0,0,0,409.329,4.5,59.081,59.081,0,0,0,390.906,3.272Zm3.072,39.3a25.969,25.969,0,0,1,19.652,7.369l61.411,60.8c3.376,3.378,3.376,2.149,0,5.527l-82.291,82.292c.077-.079,0,.536-1.843.613-1.535.077-3.838-1.228-6.141-2.456h-1.228l-46.058-46.673-9.213-9.211-11.667,4.3S256.184,167.7,210.972,215.141C166.524,261.66,142.19,318.927,142.19,318.927l-4.913,12.282,9.212,9.826,49.129,49.129c3.378,3.376,3.378,2.148,0,5.526l-80.449,80.45c-3.378,3.376-2.149,3.376-5.527,0L49.459,416.57c-.153-.153.153-.46,0-.613l-.614-.615c-6.832-8.521-8.9-17.578-5.527-28.249.077-.23-.077-.383,0-.613,17.425-44.371,55.807-131.343,133.263-208.8C254.343,99.918,342.545,59.924,385.38,45.031l.613-.614h.615A21.238,21.238,0,0,1,393.978,42.575Z" transform="translate(-2.88 -3.019)"/>
</svg>
