<svg xmlns="http://www.w3.org/2000/svg" width="512" height="448" viewBox="0 0 512 448">
  <path id="screen" d="M46.667,6A42.749,42.749,0,0,0,4,48.667V326a42.749,42.749,0,0,0,42.667,42.667H473.333A42.748,42.748,0,0,0,516,326V48.667A42.749,42.749,0,0,0,473.333,6Zm0,42.667H473.333V283.333H46.667ZM260,304.667A21.333,21.333,0,1,1,238.667,326,21.374,21.374,0,0,1,260,304.667ZM220.668,390l-2,12.668A29.1,29.1,0,0,1,190,427.333H153.333V454H366.667V427.333H330a29.1,29.1,0,0,1-28.668-24.666l-2-12.668Z" transform="translate(-4 -6)"/>
</svg>
