<svg xmlns="http://www.w3.org/2000/svg" width="1126" height="563" viewBox="0 0 1126 563">
  <path id="users-group" d="M564,9A150.133,150.133,0,1,0,714.133,159.133,150.049,150.049,0,0,0,564,9Zm0,300.267A263.211,263.211,0,0,0,343.492,428.9a196.335,196.335,0,0,0-50.435-50.434C320.913,351.2,338.8,313.519,338.8,271.733c0-82.543-67.589-150.133-150.133-150.133S38.533,189.19,38.533,271.733c0,41.786,17.887,79.466,45.744,106.737C34.282,412.337,1,469.958,1,534.467H76.067a112.6,112.6,0,1,1,225.2,0V572H826.733V534.467a112.6,112.6,0,0,1,225.2,0H1127c0-64.509-33.281-122.13-83.275-156,27.854-27.272,45.742-64.952,45.742-106.737,0-82.543-67.59-150.133-150.133-150.133S789.2,189.19,789.2,271.733c0,41.786,17.888,79.466,45.746,106.737A196.32,196.32,0,0,0,784.508,428.9,263.21,263.21,0,0,0,564,309.267Zm-375.333-112.6A75.067,75.067,0,1,1,113.6,271.733,74.468,74.468,0,0,1,188.667,196.667Zm750.667,0a75.067,75.067,0,1,1-75.067,75.067A74.468,74.468,0,0,1,939.333,196.667Z" transform="translate(-1 -9)"/>
</svg>
