<svg xmlns="http://www.w3.org/2000/svg" width="512" height="512" viewBox="0 0 512 512">
  <path id="web-link" d="M260,4C118.833,4,4,118.833,4,260S118.833,516,260,516a251.18,251.18,0,0,0,58-6.916l-27.334-68.166c-10.334,20.749-21.333,32.416-30.667,32.416a13.8,13.8,0,0,1-4.917-1.25c-.582-.25-1.167-.416-1.833-.749-.582-.252-1.084-.751-1.583-1a42.63,42.63,0,0,1-8.668-8,72.551,72.551,0,0,1-5.916-7.917c-1.666-2.5-3.334-5.333-5-8.333-.5-.917-1-1.918-1.5-2.835a208.5,208.5,0,0,1-9.417-21.333c-1.167-3-2.251-6.249-3.334-9.583-2.165-6.417-4.25-13.25-6.165-20.582-.333-1.25-.668-2.417-1-3.75H269.5l-17.084-42.667H202.167c-1.585-10.583-2.75-21.666-3.75-33-.416-5.417-.751-10.916-1.084-16.416C196.668,284.083,196,272.333,196,260c0-11.418.668-22.334,1.25-33.333.416-7.249.834-14.417,1.417-21.333.668-6.916,1.5-13.666,2.334-20.333.5-3.5,1-6.916,1.5-10.334h115a535.843,535.843,0,0,1,6.084,64H217.333l.166.333,33.749,10.084,114.918,34.5a20.478,20.478,0,0,1,.166-2.251H472.25a206.742,206.742,0,0,1-5.833,32.333l40.666,12.25A253.089,253.089,0,0,0,516,260C516,118.833,401.167,4,260,4Zm0,42.667c15.5,0,35.75,31.833,49.25,85.333h-98.5c.25-.833.333-1.833.585-2.667,1.248-4.833,2.75-9.167,4.083-13.75,1.749-5.5,3.332-11.25,5.165-16.083a185.65,185.65,0,0,1,11.834-26.167c1.918-3.333,3.75-6.333,5.585-9a77.069,77.069,0,0,1,5-6.667,38.733,38.733,0,0,1,9.417-8.5,9.228,9.228,0,0,1,1.25-.667c.917-.5,1.751-.833,2.5-1.167A16.117,16.117,0,0,1,260,46.667Zm-67.75,11.25c-2.667,5.084-5.084,10.417-7.5,15.917-.751,1.833-1.5,3.75-2.167,5.667-1,2.417-2,4.75-2.916,7.333-.418,1-.668,2.167-1,3.167-3.418,9.583-6.417,19.75-9.084,30.333-.832,3.167-1.583,6.333-2.249,9.583-.169.667-.418,1.417-.585,2.083H89.667A215.239,215.239,0,0,1,192.25,57.917Zm135.584,0A214.616,214.616,0,0,1,430.334,132H353.25C346.916,103.917,338.5,78.5,327.834,57.917ZM64.667,174.667h94.5c-.915,6.916-1.583,14-2.332,21.084C155.75,206.334,155,217,154.417,228.083c-.166,3.584-.585,7-.751,10.583H47.75A210.986,210.986,0,0,1,64.667,174.667Zm296.167,0h94.5a210.979,210.979,0,0,1,16.915,64H366.334A637.135,637.135,0,0,0,360.834,174.667ZM47.75,281.333H153.666c.25,5.916.751,11.75,1.084,17.666.25,4.585.416,9.25.834,13.751.832,11,2,21.916,3.5,32.582H64.667A210.987,210.987,0,0,1,47.75,281.333Zm233.583,21.333L366.667,516l40.083-57.333L473.333,516,516,468.083l-70.251-58.334,48.917-43.083ZM89.75,388h76.917c.333,1.333.668,2.583,1,3.917.666,3,1.417,5.833,2.165,8.751,2.667,10.5,5.751,20.666,9.084,30.082a21.949,21.949,0,0,0,.751,2.5c1.084,3.083,2.334,6,3.582,9,.585,1.5,1.25,3.166,1.835,4.666,2.082,4.751,4.166,9.25,6.334,13.583.25.5.5,1.084.749,1.585A213.312,213.312,0,0,1,89.75,388Z" transform="translate(-4 -4)"/>
</svg>
